# xmcd CD database file generated by Grip 2.93
# 
# Track frame offsets:
#       150
#       20574
#       48171
#       76128
#       96294
#       115480
#       133720
# 
# Disc length: 2034 seconds
# 
# Revision: 3
# Processed by: cddbd v1.4b41PL1 Copyright (c) Steve Scherf et al.
# Submitted via: Grip 2.93
# 
DISCID=5407f007
DTITLE=Enthroned - Gothic Disturbance
DYEAR=1900
DGENRE=
TTITLE0=Overmodulated
TTITLE1=Toccata in Death Minor
TTITLE2=Gothic Disturbance
TTITLE3=Liquefiied
TTITLE4=Immortal Hate
TTITLE5=Injection
TTITLE6=Lord of Worms
EXTD=
EXTT0=
EXTT1=
EXTT2=
EXTT3=
EXTT4=
EXTT5=
EXTT6=
PLAYORDER=
